<mxfile host="app.diagrams.net" agent="Mozilla/5.0 (Windows NT 10.0; Win64; x64) AppleWebKit/537.36 (KHTML, like Gecko) Chrome/141.0.0.0 Safari/537.36 Edg/141.0.0.0" version="28.2.7">
  <diagram name="第 1 页" id="boMeZ4Nji44rvJlrzVIr">
    <mxGraphModel dx="2245" dy="794" grid="1" gridSize="10" guides="1" tooltips="1" connect="1" arrows="1" fold="1" page="1" pageScale="1" pageWidth="827" pageHeight="1169" background="none" math="0" shadow="0">
      <root>
        <mxCell id="0" />
        <mxCell id="1" parent="0" />
        <mxCell id="VR0H_Z1vQvsn-hPOj-ss-1" value="" style="rounded=1;whiteSpace=wrap;html=1;" vertex="1" parent="1">
          <mxGeometry x="90" y="230" width="810" height="40" as="geometry" />
        </mxCell>
        <mxCell id="VR0H_Z1vQvsn-hPOj-ss-4" value="&lt;font style=&quot;font-size: 24px;&quot;&gt;&lt;b&gt;param1&lt;/b&gt;&lt;/font&gt;" style="rounded=1;whiteSpace=wrap;html=1;fillColor=#fff2cc;strokeColor=#d6b656;sketch=1;curveFitting=1;jiggle=2;" vertex="1" parent="1">
          <mxGeometry x="90" y="230" width="230" height="40" as="geometry" />
        </mxCell>
        <mxCell id="VR0H_Z1vQvsn-hPOj-ss-5" value="&lt;font style=&quot;font-size: 24px;&quot;&gt;&lt;b&gt;param2&lt;/b&gt;&lt;/font&gt;" style="rounded=1;whiteSpace=wrap;html=1;fillColor=#fff2cc;strokeColor=#d6b656;sketch=1;curveFitting=1;jiggle=2;" vertex="1" parent="1">
          <mxGeometry x="390" y="230" width="110" height="40" as="geometry" />
        </mxCell>
        <mxCell id="VR0H_Z1vQvsn-hPOj-ss-6" value="&lt;font style=&quot;font-size: 24px;&quot;&gt;&lt;b&gt;param3&lt;/b&gt;&lt;/font&gt;" style="rounded=1;whiteSpace=wrap;html=1;fillColor=#fff2cc;strokeColor=#d6b656;sketch=1;curveFitting=1;jiggle=2;" vertex="1" parent="1">
          <mxGeometry x="560" y="230" width="160" height="40" as="geometry" />
        </mxCell>
        <mxCell id="VR0H_Z1vQvsn-hPOj-ss-7" value="&lt;font style=&quot;font-size: 24px;&quot;&gt;&lt;b&gt;param4&lt;/b&gt;&lt;/font&gt;" style="rounded=1;whiteSpace=wrap;html=1;fillColor=#fff2cc;strokeColor=#d6b656;sketch=1;curveFitting=1;jiggle=2;" vertex="1" parent="1">
          <mxGeometry x="770" y="230" width="110" height="40" as="geometry" />
        </mxCell>
        <mxCell id="VR0H_Z1vQvsn-hPOj-ss-9" value="&lt;b style=&quot;font-size: 24px;&quot;&gt;Param_list&lt;/b&gt;" style="text;html=1;whiteSpace=wrap;strokeColor=none;fillColor=none;align=center;verticalAlign=middle;rounded=0;" vertex="1" parent="1">
          <mxGeometry x="-20" y="235" width="60" height="30" as="geometry" />
        </mxCell>
        <mxCell id="VR0H_Z1vQvsn-hPOj-ss-10" value="" style="rounded=1;whiteSpace=wrap;html=1;" vertex="1" parent="1">
          <mxGeometry x="370" y="360" width="490" height="40" as="geometry" />
        </mxCell>
        <mxCell id="VR0H_Z1vQvsn-hPOj-ss-11" value="&lt;b style=&quot;forced-color-adjust: none; color: rgb(0, 0, 0); font-family: Helvetica; font-style: normal; font-variant-ligatures: normal; font-variant-caps: normal; letter-spacing: normal; orphans: 2; text-align: center; text-indent: 0px; text-transform: none; widows: 2; word-spacing: 0px; -webkit-text-stroke-width: 0px; white-space: normal; text-decoration-thickness: initial; text-decoration-style: initial; text-decoration-color: initial; font-size: 24px;&quot;&gt;Sharding_rank0_param_list&lt;/b&gt;" style="text;whiteSpace=wrap;html=1;" vertex="1" parent="1">
          <mxGeometry x="10" y="360" width="280" height="50" as="geometry" />
        </mxCell>
        <mxCell id="VR0H_Z1vQvsn-hPOj-ss-13" value="" style="rounded=1;whiteSpace=wrap;html=1;" vertex="1" parent="1">
          <mxGeometry x="370" y="430" width="490" height="40" as="geometry" />
        </mxCell>
        <mxCell id="VR0H_Z1vQvsn-hPOj-ss-14" value="&lt;b style=&quot;forced-color-adjust: none; color: rgb(0, 0, 0); font-family: Helvetica; font-style: normal; font-variant-ligatures: normal; font-variant-caps: normal; letter-spacing: normal; orphans: 2; text-align: center; text-indent: 0px; text-transform: none; widows: 2; word-spacing: 0px; -webkit-text-stroke-width: 0px; white-space: normal; text-decoration-thickness: initial; text-decoration-style: initial; text-decoration-color: initial; font-size: 24px;&quot;&gt;Sharding_rank1_param_list&lt;/b&gt;" style="text;whiteSpace=wrap;html=1;" vertex="1" parent="1">
          <mxGeometry x="10" y="430" width="280" height="50" as="geometry" />
        </mxCell>
        <mxCell id="VR0H_Z1vQvsn-hPOj-ss-16" value="&lt;font style=&quot;font-size: 24px;&quot;&gt;&lt;b&gt;param1&lt;/b&gt;&lt;/font&gt;" style="rounded=1;whiteSpace=wrap;html=1;fillColor=#fff2cc;strokeColor=#d6b656;sketch=1;curveFitting=1;jiggle=2;" vertex="1" parent="1">
          <mxGeometry x="370" y="360" width="230" height="40" as="geometry" />
        </mxCell>
        <mxCell id="VR0H_Z1vQvsn-hPOj-ss-17" value="&lt;font style=&quot;font-size: 24px;&quot;&gt;&lt;b&gt;param2&lt;/b&gt;&lt;/font&gt;" style="rounded=1;whiteSpace=wrap;html=1;fillColor=#fff2cc;strokeColor=#d6b656;sketch=1;curveFitting=1;jiggle=2;" vertex="1" parent="1">
          <mxGeometry x="370" y="430" width="110" height="40" as="geometry" />
        </mxCell>
        <mxCell id="VR0H_Z1vQvsn-hPOj-ss-18" value="&lt;font style=&quot;font-size: 24px;&quot;&gt;&lt;b&gt;param3&lt;/b&gt;&lt;/font&gt;" style="rounded=1;whiteSpace=wrap;html=1;fillColor=#fff2cc;strokeColor=#d6b656;sketch=1;curveFitting=1;jiggle=2;" vertex="1" parent="1">
          <mxGeometry x="535" y="430" width="160" height="40" as="geometry" />
        </mxCell>
        <mxCell id="VR0H_Z1vQvsn-hPOj-ss-19" value="&lt;font style=&quot;font-size: 24px;&quot;&gt;&lt;b&gt;param4&lt;/b&gt;&lt;/font&gt;" style="rounded=1;whiteSpace=wrap;html=1;fillColor=#fff2cc;strokeColor=#d6b656;sketch=1;curveFitting=1;jiggle=2;" vertex="1" parent="1">
          <mxGeometry x="650" y="360" width="110" height="40" as="geometry" />
        </mxCell>
        <mxCell id="VR0H_Z1vQvsn-hPOj-ss-20" value="" style="shape=flexArrow;endArrow=classic;html=1;rounded=0;entryX=0.25;entryY=0;entryDx=0;entryDy=0;fillColor=light-dark(#050505, #ededed);" edge="1" parent="1">
          <mxGeometry width="50" height="50" relative="1" as="geometry">
            <mxPoint x="445" y="280" as="sourcePoint" />
            <mxPoint x="444.5" y="350" as="targetPoint" />
          </mxGeometry>
        </mxCell>
        <mxCell id="VR0H_Z1vQvsn-hPOj-ss-22" value="&lt;b style=&quot;font-size: 24px;&quot;&gt;Partition_param&lt;/b&gt;" style="text;html=1;whiteSpace=wrap;strokeColor=none;fillColor=none;align=center;verticalAlign=middle;rounded=0;" vertex="1" parent="1">
          <mxGeometry x="520" y="300" width="60" height="30" as="geometry" />
        </mxCell>
      </root>
    </mxGraphModel>
  </diagram>
</mxfile>
